<?xml version="1.0" encoding="UTF-8"?>
<svg id="Layer_2" data-name="Layer 2" xmlns="http://www.w3.org/2000/svg" viewBox="0 0 74.42 99.33">
  <defs>
    <style>
      .cls-1 {
        fill: #f26322;
      }
    </style>
  </defs>
  <g id="Layer_1-2" data-name="Layer 1">
    <path class="cls-1" d="M23.25,83.99c5.63,4.36,16.65,2.84,22.15.06,6.28-3.17,11.44-8.99,14.28-16.72h0s.02-.05.02-.05c1.11-3.05,4.17-5.07,7.39-4.64,4.56.61,7.14,5.16,5.67,9.23l-.07.2v.03c-11.69,30.45-52.59,35.38-64.54,14.69-2.12-3.67-3.21-7.58-3.28-11.71-.07-4.13.88-8,2.85-11.6,1.98-3.59,4.78-6.45,8.44-8.56,3.48-2.01,7.19-3,11.11-2.96,3.91.06,7.56,1.08,10.93,3.08,3.37,2.01,6.03,4.71,8,8.13,1.05,1.83,1.44,3.38,1.17,4.65s-1.3,2.42-3.07,3.44l-15.69,9.06c-1.16.67-2.64.59-3.66-.27-.05-.04-.1-.08-.14-.12-1.11-.99-1.94-2.23-2.43-3.61,0,0,0-.02,0-.02-.49-1.39.18-2.92,1.45-3.66l9.61-5.55c-4-4.09-7.99-4.99-12-2.68-3.54,2.04-4.69,5.91-3.5,11.62l.03-.02c.12.58.28,1.15.48,1.7.72,2.01,1.94,3.85,3.61,5.33.38.34.77.65,1.18.93h0ZM16.95,45.13c.11.99.64,1.87,1.39,2.47.73.59,1.7.95,2.73.96,1.04,0,1.99-.34,2.71-.93.74-.6,1.24-1.47,1.31-2.47.2-2.74.43-5.85.69-9.4.3-4.08.65-8.85,1.06-14.47.18-2.51-.39-4.94-1.52-6.82-1.19-1.97-2.95-3.24-4.94-3.25-1.99,0-3.7,1.28-4.82,3.24-1.06,1.86-1.54,4.3-1.27,6.81.62,5.61,1.15,10.37,1.6,14.45.39,3.54.74,6.65,1.04,9.4h0ZM29.85,44.99c-.63,1.91,1.05,3.59,3.64,3.84,1.27.12,2.55-.11,3.62-.58,1.08-.47,1.97-1.21,2.42-2.11,1.9-3.8,4.05-8.12,6.51-13.08,2.84-5.73,6.16-12.46,10.09-20.45,2.31-4.66,1.29-10.21-2.69-12.06-2.09-.96-4.48-.63-6.59.66-2.06,1.26-3.78,3.43-4.65,6.09-3,9.23-5.49,16.89-7.61,23.31-1.81,5.49-3.38,10.23-4.75,14.37h0ZM45.01,50.82c-1.15,1.73-.31,3.88,1.72,4.87.98.48,2.08.61,3.09.46,1.01-.15,1.96-.62,2.61-1.36,2.33-2.64,4.92-5.6,7.83-8.92,3.29-3.75,7.04-8.03,11.35-12.95,2.91-3.32,3.78-8.48,1.55-11.42-1.19-1.56-2.99-2.09-4.87-1.66-1.87.42-3.76,1.78-5.16,3.89-4.21,6.31-7.81,11.69-10.91,16.33-2.71,4.04-5.09,7.6-7.2,10.76h0ZM5.14,53.67c.37.93,1.01,1.56,1.73,1.83.7.26,1.51.21,2.29-.21.78-.42,1.42-1.17,1.82-2.05.42-.93.61-2.04.43-3.12-.27-1.61-.57-3.38-.9-5.34-.37-2.18-.79-4.61-1.25-7.35-.38-2.21-1.3-4.04-2.5-5.14-1.27-1.15-2.79-1.42-4.16-.47-1.35.94-2.21,2.83-2.5,4.97-.27,1.99-.03,4.15.72,6.01.93,2.33,1.75,4.4,2.49,6.27.67,1.68,1.28,3.21,1.83,4.6Z"/>
  </g>
</svg>