<?xml version="1.0" encoding="UTF-8"?>
<svg id="Layer_2" data-name="Layer 2" xmlns="http://www.w3.org/2000/svg" viewBox="0 0 271.42 99.33">
  <defs>
    <style>
      .cls-1 {
        fill: #f26322;
      }
    </style>
  </defs>
  <g id="Layer_1-2" data-name="Layer 1">
    <g>
      <path class="cls-1" d="M118.52,83.99c5.63,4.36,16.65,2.84,22.15.06,6.28-3.17,11.44-8.99,14.28-16.72h0s.02-.05.02-.05c1.11-3.05,4.17-5.07,7.39-4.64,4.56.61,7.14,5.16,5.67,9.23l-.07.2v.03c-11.69,30.45-52.59,35.38-64.54,14.69-2.12-3.67-3.21-7.58-3.28-11.71-.07-4.13.88-8,2.85-11.6,1.98-3.59,4.78-6.45,8.44-8.56,3.48-2.01,7.19-3,11.11-2.96,3.91.06,7.56,1.08,10.93,3.08,3.37,2.01,6.03,4.71,8,8.13,1.05,1.83,1.44,3.38,1.17,4.65s-1.3,2.42-3.07,3.44l-15.69,9.06c-1.16.67-2.64.59-3.66-.27-.05-.04-.1-.08-.14-.12-1.11-.99-1.94-2.23-2.43-3.61,0,0,0-.02,0-.02-.49-1.39.18-2.92,1.45-3.66l9.61-5.55c-4-4.09-7.99-4.99-12-2.68-3.54,2.04-4.69,5.91-3.5,11.62l.03-.02c.12.58.28,1.15.48,1.7.72,2.01,1.94,3.85,3.61,5.33.38.34.77.65,1.18.93h0ZM112.22,45.13c.11.99.64,1.87,1.39,2.47.73.59,1.7.95,2.73.96,1.04,0,1.99-.34,2.71-.93.74-.6,1.24-1.47,1.31-2.47.2-2.74.43-5.85.69-9.4.3-4.08.65-8.85,1.06-14.47.18-2.51-.39-4.94-1.52-6.82-1.19-1.97-2.95-3.24-4.94-3.25-1.99,0-3.7,1.28-4.82,3.24-1.06,1.86-1.54,4.3-1.27,6.81.62,5.61,1.15,10.37,1.6,14.45.39,3.54.74,6.65,1.04,9.4h0ZM125.12,44.99c-.63,1.91,1.05,3.59,3.64,3.84,1.27.12,2.55-.11,3.62-.58,1.08-.47,1.97-1.21,2.42-2.11,1.9-3.8,4.05-8.12,6.51-13.08,2.84-5.73,6.16-12.46,10.09-20.45,2.31-4.66,1.29-10.21-2.69-12.06-2.09-.96-4.48-.63-6.59.66-2.06,1.26-3.78,3.43-4.65,6.09-3,9.23-5.49,16.89-7.61,23.31-1.81,5.49-3.38,10.23-4.75,14.37h0ZM140.28,50.82c-1.15,1.73-.31,3.88,1.72,4.87.98.48,2.08.61,3.09.46,1.01-.15,1.96-.62,2.61-1.36,2.33-2.64,4.92-5.6,7.83-8.92,3.29-3.75,7.04-8.03,11.35-12.95,2.91-3.32,3.78-8.48,1.55-11.42-1.19-1.56-2.99-2.09-4.87-1.66-1.87.42-3.76,1.78-5.16,3.89-4.21,6.31-7.81,11.69-10.91,16.33-2.71,4.04-5.09,7.6-7.2,10.76h0ZM100.41,53.67c.37.93,1.01,1.56,1.73,1.83.7.26,1.51.21,2.29-.21.78-.42,1.42-1.17,1.82-2.05.42-.93.61-2.04.43-3.12-.27-1.61-.57-3.38-.9-5.34-.37-2.18-.79-4.61-1.25-7.35-.38-2.21-1.3-4.04-2.5-5.14-1.27-1.15-2.79-1.42-4.16-.47-1.35.94-2.21,2.83-2.5,4.97-.27,1.99-.03,4.15.72,6.01.93,2.33,1.75,4.4,2.49,6.27.67,1.68,1.28,3.21,1.83,4.6Z"/>
      <path class="cls-1" d="M9.06,46.99c1.14-6.67,1.72-11.73,1.72-15.16,0-.7-.02-1.29-.05-1.76-.03-.48-.08-1-.14-1.57,1.08-.19,2.32-.33,3.72-.43,1.4-.1,2.6-.14,3.62-.14,1.84,0,3.88.19,6.1.57.32.95.48,2.16.48,3.62,0,2.8-.38,6.2-1.14,10.2l-2.48,13.35c1.65-2.22,3.84-4.08,6.58-5.58,2.73-1.49,5.62-2.24,8.67-2.24,3.81,0,6.78.97,8.91,2.91,2.13,1.94,3.19,5.16,3.19,9.68,0,.95-.06,1.97-.19,3.05-.13,1.08-.29,2.23-.48,3.43l-5.53,31.27c-2.42.38-4.73.57-6.96.57s-4.42-.19-6.58-.57l5.34-30.22c.25-1.27.38-2.48.38-3.62,0-1.91-.41-3.24-1.24-4-.83-.76-2-1.14-3.53-1.14-.89,0-1.89.22-3,.67-1.11.45-2.24,1.38-3.38,2.81-1.14,1.43-2.26,3.45-3.34,6.05-1.08,2.61-2,6.04-2.76,10.3l-3.53,19.16c-1.21.19-2.4.32-3.57.38-1.18.06-2.27.1-3.29.1-1.08,0-2.15-.03-3.19-.1-1.05-.06-2.18-.19-3.38-.38l9.06-51.19Z"/>
      <path class="cls-1" d="M69.57,99.33c-6.55,0-11.36-1.72-14.44-5.15-3.08-3.43-4.62-8.14-4.62-14.11,0-3.81.57-7.64,1.72-11.49,1.14-3.84,2.86-7.31,5.15-10.39,2.29-3.08,5.16-5.59,8.63-7.53,3.46-1.94,7.51-2.91,12.16-2.91,6.61,0,11.45,1.75,14.54,5.24,3.08,3.5,4.62,8.23,4.62,14.2,0,3.94-.56,7.82-1.67,11.63-1.11,3.81-2.81,7.25-5.1,10.3-2.29,3.05-5.18,5.51-8.67,7.39-3.5,1.87-7.6,2.81-12.3,2.81ZM70.81,89.03c2.41,0,4.45-.76,6.1-2.29,1.65-1.53,3-3.42,4.05-5.67,1.05-2.25,1.79-4.64,2.24-7.15.44-2.51.67-4.78.67-6.82,0-5.85-2.38-8.77-7.15-8.77-2.42,0-4.42.79-6.01,2.38-1.59,1.59-2.89,3.53-3.91,5.81-1.02,2.29-1.73,4.7-2.15,7.25-.41,2.54-.62,4.8-.62,6.77,0,5.66,2.26,8.48,6.77,8.48Z"/>
      <path class="cls-1" d="M177.04,46.99c.7-3.37,1.19-6.31,1.48-8.82s.43-4.62.43-6.34c0-.7-.02-1.29-.05-1.76-.03-.48-.08-1-.14-1.57,1.08-.19,2.32-.33,3.72-.43,1.4-.1,2.6-.14,3.62-.14,1.84,0,3.88.19,6.1.57.32.95.48,2.16.48,3.62,0,1.33-.13,2.86-.38,4.58-.26,1.72-.57,3.59-.95,5.62l-7.34,38.32c-.19,1.08-.29,1.97-.29,2.67,0,1.02.14,1.81.43,2.38.29.57.65,1.02,1.1,1.33.44.32.95.52,1.53.62.57.09,1.14.14,1.72.14.25,0,.73-.05,1.43-.14.7-.1,1.33-.24,1.91-.43.32,1.08.59,2.26.81,3.53.22,1.27.33,2.57.33,3.91,0,.51-.02.99-.05,1.43-.03.44-.08.92-.14,1.43-.95.38-2.19.68-3.72.91-1.52.22-3.21.33-5.05.33-4.32,0-7.72-1.06-10.2-3.19-2.48-2.13-3.72-5.48-3.72-10.06,0-.89.06-1.83.19-2.81.13-.98.29-2.02.48-3.1l6.29-32.6Z"/>
      <path class="cls-1" d="M202.63,46.99c.7-3.37,1.19-6.31,1.48-8.82s.43-4.62.43-6.34c0-.7-.02-1.29-.05-1.76-.03-.48-.08-1-.14-1.57,1.08-.19,2.32-.33,3.72-.43,1.4-.1,2.6-.14,3.62-.14,1.84,0,3.88.19,6.1.57.32.95.48,2.16.48,3.62,0,1.33-.13,2.86-.38,4.58-.26,1.72-.57,3.59-.95,5.62l-7.34,38.32c-.19,1.08-.29,1.97-.29,2.67,0,1.02.14,1.81.43,2.38.29.57.65,1.02,1.1,1.33.44.32.95.52,1.53.62.57.09,1.14.14,1.72.14.25,0,.73-.05,1.43-.14.7-.1,1.33-.24,1.91-.43.32,1.08.59,2.26.81,3.53.22,1.27.33,2.57.33,3.91,0,.51-.02.99-.05,1.43-.03.44-.08.92-.14,1.43-.95.38-2.19.68-3.72.91-1.52.22-3.21.33-5.05.33-4.32,0-7.72-1.06-10.2-3.19-2.48-2.13-3.72-5.48-3.72-10.06,0-.89.06-1.83.19-2.81.13-.98.29-2.02.48-3.1l6.29-32.6Z"/>
      <path class="cls-1" d="M266.75,76.83c-.7,4-1.21,7.55-1.52,10.63-.32,3.08-.48,5.48-.48,7.2v1.76c0,.48.03,1,.09,1.57-2.1.38-4.16.57-6.2.57-1.78,0-3.75-.19-5.91-.57-.13-.51-.25-1.11-.38-1.81-.13-.7-.19-1.75-.19-3.15v-1.81c0-.63.06-1.37.19-2.19-1.84,2.92-4.19,5.37-7.05,7.34-2.86,1.97-6.2,2.95-10.01,2.95-4.19,0-7.34-1.33-9.44-4-2.1-2.67-3.15-6.2-3.15-10.58,0-4.77.71-9.37,2.14-13.82,1.43-4.45,3.56-8.39,6.39-11.82,2.83-3.43,6.34-6.18,10.53-8.25,4.19-2.06,9.09-3.1,14.68-3.1,2.8,0,5.4.19,7.82.57,2.41.38,4.8.92,7.15,1.62l-4.67,26.88ZM256.93,59.1c-.57-.13-1.13-.21-1.67-.24-.54-.03-1.07-.05-1.57-.05-3.05,0-5.64.76-7.77,2.29-2.13,1.53-3.89,3.43-5.29,5.72-1.4,2.29-2.42,4.75-3.05,7.39-.64,2.64-.95,5.04-.95,7.2,0,4.7,1.56,7.06,4.67,7.06s5.88-1.86,8.48-5.58c2.61-3.72,4.51-8.95,5.72-15.68l1.43-8.1Z"/>
    </g>
  </g>
</svg>